<mxfile host="Electron" modified="2024-01-15T17:11:52.813Z" agent="Mozilla/5.0 (Macintosh; Intel Mac OS X 10_15_7) AppleWebKit/537.36 (KHTML, like Gecko) draw.io/22.1.16 Chrome/120.0.6099.109 Electron/28.1.0 Safari/537.36" etag="Mdi6QnpAQvhJshj6fzYd" version="22.1.16" type="device">
  <diagram id="YlM8aCURYWTLifYDHDNg" name="Compute">
    <mxGraphModel dx="3182" dy="907" grid="1" gridSize="10" guides="1" tooltips="1" connect="1" arrows="1" fold="1" page="1" pageScale="1" pageWidth="850" pageHeight="1100" math="0" shadow="0">
      <root>
        <mxCell id="0" />
        <mxCell id="1" parent="0" />
        <mxCell id="L6_ODTOo7d9szGgP1L_s-1" value="High-level compute options" style="rounded=0;whiteSpace=wrap;html=1;fillColor=#dae8fc;strokeColor=#6c8ebf;" parent="1" vertex="1">
          <mxGeometry x="-1370" y="20" width="1020" height="30" as="geometry" />
        </mxCell>
        <UserObject label="%date{ddd mmm dd yyyy HH:MM:ss}%" placeholders="1" id="L6_ODTOo7d9szGgP1L_s-2">
          <mxCell style="text;html=1;strokeColor=none;fillColor=none;align=center;verticalAlign=middle;whiteSpace=wrap;overflow=hidden;" parent="1" vertex="1">
            <mxGeometry x="-650" y="25" width="160" height="20" as="geometry" />
          </mxCell>
        </UserObject>
        <mxCell id="L6_ODTOo7d9szGgP1L_s-3" style="edgeStyle=orthogonalEdgeStyle;rounded=0;orthogonalLoop=1;jettySize=auto;html=1;entryX=0;entryY=0.5;entryDx=0;entryDy=0;" parent="1" source="L6_ODTOo7d9szGgP1L_s-6" target="L6_ODTOo7d9szGgP1L_s-11" edge="1">
          <mxGeometry relative="1" as="geometry" />
        </mxCell>
        <mxCell id="L6_ODTOo7d9szGgP1L_s-4" style="edgeStyle=orthogonalEdgeStyle;rounded=0;orthogonalLoop=1;jettySize=auto;html=1;entryX=0;entryY=0.5;entryDx=0;entryDy=0;" parent="1" source="L6_ODTOo7d9szGgP1L_s-6" target="L6_ODTOo7d9szGgP1L_s-12" edge="1">
          <mxGeometry relative="1" as="geometry" />
        </mxCell>
        <mxCell id="L6_ODTOo7d9szGgP1L_s-5" style="edgeStyle=orthogonalEdgeStyle;rounded=0;orthogonalLoop=1;jettySize=auto;html=1;entryX=0;entryY=0.5;entryDx=0;entryDy=0;" parent="1" source="L6_ODTOo7d9szGgP1L_s-6" target="L6_ODTOo7d9szGgP1L_s-13" edge="1">
          <mxGeometry relative="1" as="geometry" />
        </mxCell>
        <mxCell id="L6_ODTOo7d9szGgP1L_s-6" value="Production" style="rounded=1;whiteSpace=wrap;html=1;" parent="1" vertex="1">
          <mxGeometry x="-1370" y="105" width="120" height="60" as="geometry" />
        </mxCell>
        <mxCell id="L6_ODTOo7d9szGgP1L_s-7" style="edgeStyle=orthogonalEdgeStyle;rounded=0;orthogonalLoop=1;jettySize=auto;html=1;entryX=0;entryY=0.5;entryDx=0;entryDy=0;" parent="1" source="L6_ODTOo7d9szGgP1L_s-10" target="L6_ODTOo7d9szGgP1L_s-55" edge="1">
          <mxGeometry relative="1" as="geometry" />
        </mxCell>
        <mxCell id="L6_ODTOo7d9szGgP1L_s-8" style="edgeStyle=orthogonalEdgeStyle;rounded=0;orthogonalLoop=1;jettySize=auto;html=1;entryX=0;entryY=0.5;entryDx=0;entryDy=0;" parent="1" source="L6_ODTOo7d9szGgP1L_s-10" target="L6_ODTOo7d9szGgP1L_s-56" edge="1">
          <mxGeometry relative="1" as="geometry" />
        </mxCell>
        <mxCell id="L6_ODTOo7d9szGgP1L_s-9" style="edgeStyle=orthogonalEdgeStyle;rounded=0;orthogonalLoop=1;jettySize=auto;html=1;entryX=0;entryY=0.5;entryDx=0;entryDy=0;" parent="1" source="L6_ODTOo7d9szGgP1L_s-10" target="L6_ODTOo7d9szGgP1L_s-58" edge="1">
          <mxGeometry relative="1" as="geometry" />
        </mxCell>
        <mxCell id="L6_ODTOo7d9szGgP1L_s-10" value="POC/Pilot" style="rounded=1;whiteSpace=wrap;html=1;" parent="1" vertex="1">
          <mxGeometry x="-1350" y="734.47" width="120" height="60" as="geometry" />
        </mxCell>
        <mxCell id="L6_ODTOo7d9szGgP1L_s-11" value="Virtual or&lt;br&gt;&amp;nbsp;Physical Host" style="rounded=1;whiteSpace=wrap;html=1;" parent="1" vertex="1">
          <mxGeometry x="-1180" y="105" width="120" height="60" as="geometry" />
        </mxCell>
        <mxCell id="L6_ODTOo7d9szGgP1L_s-12" value="Serverless" style="rounded=1;whiteSpace=wrap;html=1;" parent="1" vertex="1">
          <mxGeometry x="-1180" y="195" width="120" height="60" as="geometry" />
        </mxCell>
        <mxCell id="L6_ODTOo7d9szGgP1L_s-13" value="Containerization" style="rounded=1;whiteSpace=wrap;html=1;" parent="1" vertex="1">
          <mxGeometry x="-1180" y="295.27" width="120" height="60" as="geometry" />
        </mxCell>
        <UserObject label="" tags="Background" id="L6_ODTOo7d9szGgP1L_s-14">
          <mxCell style="vsdxID=62;fillColor=none;gradientColor=none;strokeColor=none;points=[];labelBackgroundColor=none;rounded=0;html=1;whiteSpace=wrap;" parent="1" vertex="1">
            <mxGeometry x="-740" y="75" width="420" height="130" as="geometry" />
          </mxCell>
        </UserObject>
        <mxCell id="L6_ODTOo7d9szGgP1L_s-15" style="vsdxID=63;fillColor=#70ad47;gradientColor=none;shape=stencil(vVTBbsMgDP0ajkHEpKE7d91/oJYkqCxEhK3Z348MqoZQOmmacjP2w/Z7GCN6GDs+CARktEZfxFWebYfoKwKQfSeMtM5C9IjoodFGtEZ/9Gd/HviMnK13/TlnmPy9EjBU8y0gX8FDyM/5zcOV7BfwPcOs/kc4NycXM4tmmIebgK8A70N/U5zhlnHHMIQaU8EnORZGW26l7n08oBU3rShcvaJRvI1C41WIIXE/JLQu7tpj1VNC5CUhBGVEKBWJbEUnV/ox92RU/g5OZCrrRKaqjmTKCb+BTLmBy5Gh5YoMxSR+8/y322KIf/vzzrjvi0Yq5dfNMr7eL87ldxM9fgM=);strokeColor=none;points=[];labelBackgroundColor=none;rounded=0;html=1;whiteSpace=wrap;fontSize=9;" parent="L6_ODTOo7d9szGgP1L_s-14" vertex="1">
          <mxGeometry x="-80" width="480" height="110" as="geometry" />
        </mxCell>
        <mxCell id="L6_ODTOo7d9szGgP1L_s-16" value="&lt;div style=&quot;font-size: 1px&quot;&gt;&lt;/div&gt;" style="verticalAlign=middle;align=center;overflow=width;vsdxID=65;fillColor=#70ad47;gradientColor=none;fillOpacity=0;shape=stencil(nZBLDoAgDERP0z3SIyjew0SURgSD+Lu9kMZoXLhwN9N5bdMClrNpJg1SzDH4QW/URgNYgZTkjA4UkwJUgGXng+6DX1zLfmoymdXo1zxh5z6RO6Q42BWCfc2oJfdAr/AX/IH+BF/rk7hv7MjaZ/L+RirxJ1Gd);strokeColor=#939393;spacingTop=-3;spacingBottom=-3;spacingLeft=-3;spacingRight=-3;points=[];labelBackgroundColor=none;rounded=0;html=1;whiteSpace=wrap;" parent="L6_ODTOo7d9szGgP1L_s-14" vertex="1">
          <mxGeometry x="72.08333333333334" y="3.6852631578947346" width="53.75" height="116.84210526315786" as="geometry" />
        </mxCell>
        <mxCell id="L6_ODTOo7d9szGgP1L_s-17" value="&lt;div style=&quot;&quot;&gt;&lt;p style=&quot;text-align:left;margin-left:0;margin-right:0;margin-top:0px;margin-bottom:0px;text-indent:0;vertical-align:middle;direction:ltr;&quot;&gt;&lt;/p&gt;&lt;ul&gt;&lt;li&gt;&lt;font style=&quot;font-size: 12px; font-family: Calibri; color: rgb(255, 255, 255); direction: ltr; letter-spacing: 0px; line-height: 120%; opacity: 1;&quot;&gt;Multiple&lt;/font&gt;&lt;font style=&quot;font-size: 12px; font-family: &amp;quot;Segoe UI&amp;quot;; color: rgb(255, 255, 255); direction: ltr; letter-spacing: 0px; line-height: 120%; opacity: 1;&quot;&gt;&amp;nbsp;Geographic Regions: Yes&lt;br&gt;&lt;/font&gt;&lt;/li&gt;&lt;li&gt;&lt;font style=&quot;font-size: 12px; font-family: Calibri; color: rgb(255, 255, 255); direction: ltr; letter-spacing: 0px; line-height: 120%; opacity: 1;&quot;&gt;Multiple&amp;nbsp;&lt;/font&gt;&lt;font style=&quot;font-size: 12px; font-family: &amp;quot;Segoe UI&amp;quot;; color: rgb(255, 255, 255); direction: ltr; letter-spacing: 0px; line-height: 120%; opacity: 1;&quot;&gt;Availability Zones: No&lt;br&gt;&lt;/font&gt;&lt;/li&gt;&lt;li&gt;&lt;font style=&quot;font-size: 12px; font-family: Calibri; color: rgb(255, 255, 255); direction: ltr; letter-spacing: 0px; line-height: 120%; opacity: 1;&quot;&gt;Endorsed Workloads: Devlopment,Test,Production&lt;/font&gt;&lt;/li&gt;&lt;li&gt;&lt;font style=&quot;font-size: 12px; font-family: Calibri; color: rgb(255, 255, 255); direction: ltr; letter-spacing: 0px; line-height: 120%; opacity: 1;&quot;&gt;Endorsed for Cirtical Systems: Yes&lt;/font&gt;&lt;/li&gt;&lt;li&gt;&lt;font style=&quot;font-size: 12px; font-family: Calibri; color: rgb(255, 255, 255); direction: ltr; letter-spacing: 0px; line-height: 120%; opacity: 1;&quot;&gt;Enterprise Support Level: High&lt;/font&gt;&lt;/li&gt;&lt;/ul&gt;&lt;/div&gt;" style="verticalAlign=middle;align=left;overflow=width;vsdxID=66;fillColor=#70ad47;gradientColor=none;shape=stencil(nZBLDoAgDERP0z3SIyjew0SURgSD+Lu9kMZoXLhwN9O+tukAlrNpJg1SzDH4QW/URgNYgZTkjA4UkwJUgGXng+6DX1zLfmoymdXo17xh5zmRJ6Q42BWCfc2oJfdAr+Yv+AP9Cb7OJ3H/2JG1HNGz/84klThPVCc=);dashed=1;strokeColor=#ffffff;spacingTop=-3;spacingBottom=-3;points=[];labelBackgroundColor=none;rounded=0;html=1;whiteSpace=wrap;" parent="L6_ODTOo7d9szGgP1L_s-14" vertex="1">
          <mxGeometry x="50" y="8.95" width="310" height="91.05" as="geometry" />
        </mxCell>
        <mxCell id="L6_ODTOo7d9szGgP1L_s-18" value="&lt;div style=&quot;&quot;&gt;&lt;font style=&quot;font-family: &amp;quot;Segoe UI&amp;quot;; color: rgb(255, 255, 255); direction: ltr; letter-spacing: 0px; line-height: 120%; opacity: 1;&quot;&gt;&lt;font style=&quot;font-size: 12px;&quot;&gt;BC Gov Managed Data Centres&lt;/font&gt;&lt;br&gt;&lt;/font&gt;&lt;/div&gt;" style="verticalAlign=middle;align=left;overflow=width;vsdxID=64;fillColor=#70ad47;gradientColor=none;shape=stencil(nZBLDoAgDERP0z3SIyjew0SURgSD+Lu9kMZoXLhwN9N5bdMClrNpJg1SzDH4QW/URgNYgZTkjA4UkwJUgGXng+6DX1zLfmoymdXo1zxh5z6RO6Q42BWCfc2oJfdAr/AX/IH+BF/rk7hv7MjaZ/L+RirxJ1Gd);strokeColor=#939393;spacingTop=-3;spacingBottom=-3;points=[];labelBackgroundColor=none;rounded=0;html=1;whiteSpace=wrap;" parent="L6_ODTOo7d9szGgP1L_s-14" vertex="1">
          <mxGeometry x="-40" y="31.580000000000013" width="85.83" height="45.79" as="geometry" />
        </mxCell>
        <UserObject label="" tags="Background" id="L6_ODTOo7d9szGgP1L_s-19">
          <mxCell style="vsdxID=62;fillColor=none;gradientColor=none;strokeColor=none;points=[];labelBackgroundColor=none;rounded=0;html=1;whiteSpace=wrap;" parent="1" vertex="1">
            <mxGeometry x="-740" y="205" width="420" height="130" as="geometry" />
          </mxCell>
        </UserObject>
        <mxCell id="L6_ODTOo7d9szGgP1L_s-20" style="vsdxID=63;fillColor=#e3c800;shape=stencil(vVTBbsMgDP0ajkHEpKE7d91/oJYkqCxEhK3Z348MqoZQOmmacjP2w/Z7GCN6GDs+CARktEZfxFWebYfoKwKQfSeMtM5C9IjoodFGtEZ/9Gd/HviMnK13/TlnmPy9EjBU8y0gX8FDyM/5zcOV7BfwPcOs/kc4NycXM4tmmIebgK8A70N/U5zhlnHHMIQaU8EnORZGW26l7n08oBU3rShcvaJRvI1C41WIIXE/JLQu7tpj1VNC5CUhBGVEKBWJbEUnV/ox92RU/g5OZCrrRKaqjmTKCb+BTLmBy5Gh5YoMxSR+8/y322KIf/vzzrjvi0Yq5dfNMr7eL87ldxM9fgM=);strokeColor=#B09500;points=[];labelBackgroundColor=none;rounded=0;html=1;whiteSpace=wrap;fontSize=9;fontColor=#000000;" parent="L6_ODTOo7d9szGgP1L_s-19" vertex="1">
          <mxGeometry x="-80" width="480" height="110" as="geometry" />
        </mxCell>
        <mxCell id="L6_ODTOo7d9szGgP1L_s-21" value="&lt;div style=&quot;font-size: 1px&quot;&gt;&lt;/div&gt;" style="verticalAlign=middle;align=center;overflow=width;vsdxID=65;fillColor=#e3c800;fillOpacity=0;shape=stencil(nZBLDoAgDERP0z3SIyjew0SURgSD+Lu9kMZoXLhwN9N5bdMClrNpJg1SzDH4QW/URgNYgZTkjA4UkwJUgGXng+6DX1zLfmoymdXo1zxh5z6RO6Q42BWCfc2oJfdAr/AX/IH+BF/rk7hv7MjaZ/L+RirxJ1Gd);strokeColor=#B09500;spacingTop=-3;spacingBottom=-3;spacingLeft=-3;spacingRight=-3;points=[];labelBackgroundColor=none;rounded=0;html=1;whiteSpace=wrap;fontColor=#000000;" parent="L6_ODTOo7d9szGgP1L_s-19" vertex="1">
          <mxGeometry x="72.08333333333334" y="3.6852631578947346" width="53.75" height="116.84210526315786" as="geometry" />
        </mxCell>
        <mxCell id="L6_ODTOo7d9szGgP1L_s-22" value="&lt;div style=&quot;&quot;&gt;&lt;p style=&quot;text-align:left;margin-left:0;margin-right:0;margin-top:0px;margin-bottom:0px;text-indent:0;vertical-align:middle;direction:ltr;&quot;&gt;&lt;/p&gt;&lt;ul&gt;&lt;li&gt;&lt;font style=&quot;font-size: 12px; font-family: Calibri; color: rgb(255, 255, 255); direction: ltr; letter-spacing: 0px; line-height: 120%; opacity: 1;&quot;&gt;Multiple&lt;/font&gt;&lt;font style=&quot;font-size: 12px; font-family: &amp;quot;Segoe UI&amp;quot;; color: rgb(255, 255, 255); direction: ltr; letter-spacing: 0px; line-height: 120%; opacity: 1;&quot;&gt;&amp;nbsp;Geographic Regions: No&lt;br&gt;&lt;/font&gt;&lt;/li&gt;&lt;li&gt;&lt;font style=&quot;font-size: 12px; font-family: Calibri; color: rgb(255, 255, 255); direction: ltr; letter-spacing: 0px; line-height: 120%; opacity: 1;&quot;&gt;Multiple&amp;nbsp;&lt;/font&gt;&lt;font style=&quot;font-size: 12px; font-family: &amp;quot;Segoe UI&amp;quot;; color: rgb(255, 255, 255); direction: ltr; letter-spacing: 0px; line-height: 120%; opacity: 1;&quot;&gt;Availability Zones: Yes&lt;br&gt;&lt;/font&gt;&lt;/li&gt;&lt;li&gt;&lt;font style=&quot;font-size: 12px; font-family: Calibri; color: rgb(255, 255, 255); direction: ltr; letter-spacing: 0px; line-height: 120%; opacity: 1;&quot;&gt;Endorsed Workloads: Devlopment,Test,Production&lt;/font&gt;&lt;/li&gt;&lt;li&gt;&lt;font style=&quot;font-size: 12px; font-family: Calibri; color: rgb(255, 255, 255); direction: ltr; letter-spacing: 0px; line-height: 120%; opacity: 1;&quot;&gt;Endorsed for Critical Systems: Yes&lt;/font&gt;&lt;/li&gt;&lt;li&gt;&lt;font style=&quot;font-size: 12px; font-family: Calibri; color: rgb(255, 255, 255); direction: ltr; letter-spacing: 0px; line-height: 120%; opacity: 1;&quot;&gt;Enterprise Support Level: Medium&lt;/font&gt;&lt;/li&gt;&lt;/ul&gt;&lt;/div&gt;" style="verticalAlign=middle;align=left;overflow=width;vsdxID=66;fillColor=#e3c800;shape=stencil(nZBLDoAgDERP0z3SIyjew0SURgSD+Lu9kMZoXLhwN9O+tukAlrNpJg1SzDH4QW/URgNYgZTkjA4UkwJUgGXng+6DX1zLfmoymdXo17xh5zmRJ6Q42BWCfc2oJfdAr+Yv+AP9Cb7OJ3H/2JG1HNGz/84klThPVCc=);dashed=1;strokeColor=#B09500;spacingTop=-3;spacingBottom=-3;points=[];labelBackgroundColor=none;rounded=0;html=1;whiteSpace=wrap;fontColor=#000000;" parent="L6_ODTOo7d9szGgP1L_s-19" vertex="1">
          <mxGeometry x="50" y="8.95" width="310" height="91.05" as="geometry" />
        </mxCell>
        <mxCell id="L6_ODTOo7d9szGgP1L_s-23" value="&lt;div style=&quot;&quot;&gt;&lt;font style=&quot;font-family: &amp;quot;Segoe UI&amp;quot;; color: rgb(255, 255, 255); direction: ltr; letter-spacing: 0px; line-height: 120%; opacity: 1;&quot;&gt;&lt;font style=&quot;font-size: 12px;&quot;&gt;Amazon Web Services&lt;/font&gt;&lt;br&gt;&lt;/font&gt;&lt;/div&gt;" style="verticalAlign=middle;align=left;overflow=width;vsdxID=64;fillColor=#e3c800;shape=stencil(nZBLDoAgDERP0z3SIyjew0SURgSD+Lu9kMZoXLhwN9N5bdMClrNpJg1SzDH4QW/URgNYgZTkjA4UkwJUgGXng+6DX1zLfmoymdXo1zxh5z6RO6Q42BWCfc2oJfdAr/AX/IH+BF/rk7hv7MjaZ/L+RirxJ1Gd);strokeColor=#B09500;spacingTop=-3;spacingBottom=-3;points=[];labelBackgroundColor=none;rounded=0;html=1;whiteSpace=wrap;fontColor=#000000;" parent="L6_ODTOo7d9szGgP1L_s-19" vertex="1">
          <mxGeometry x="-40" y="31.580000000000013" width="85.83" height="45.79" as="geometry" />
        </mxCell>
        <UserObject label="" tags="Background" id="L6_ODTOo7d9szGgP1L_s-24">
          <mxCell style="vsdxID=62;fillColor=none;gradientColor=none;strokeColor=none;points=[];labelBackgroundColor=none;rounded=0;html=1;whiteSpace=wrap;" parent="1" vertex="1">
            <mxGeometry x="-740" y="335" width="420" height="130" as="geometry" />
          </mxCell>
        </UserObject>
        <mxCell id="L6_ODTOo7d9szGgP1L_s-25" style="vsdxID=63;fillColor=#70ad47;gradientColor=none;shape=stencil(vVTBbsMgDP0ajkHEpKE7d91/oJYkqCxEhK3Z348MqoZQOmmacjP2w/Z7GCN6GDs+CARktEZfxFWebYfoKwKQfSeMtM5C9IjoodFGtEZ/9Gd/HviMnK13/TlnmPy9EjBU8y0gX8FDyM/5zcOV7BfwPcOs/kc4NycXM4tmmIebgK8A70N/U5zhlnHHMIQaU8EnORZGW26l7n08oBU3rShcvaJRvI1C41WIIXE/JLQu7tpj1VNC5CUhBGVEKBWJbEUnV/ox92RU/g5OZCrrRKaqjmTKCb+BTLmBy5Gh5YoMxSR+8/y322KIf/vzzrjvi0Yq5dfNMr7eL87ldxM9fgM=);strokeColor=none;points=[];labelBackgroundColor=none;rounded=0;html=1;whiteSpace=wrap;fontSize=9;" parent="L6_ODTOo7d9szGgP1L_s-24" vertex="1">
          <mxGeometry x="-80" width="480" height="110" as="geometry" />
        </mxCell>
        <mxCell id="L6_ODTOo7d9szGgP1L_s-26" value="&lt;div style=&quot;font-size: 1px&quot;&gt;&lt;/div&gt;" style="verticalAlign=middle;align=center;overflow=width;vsdxID=65;fillColor=#70ad47;gradientColor=none;fillOpacity=0;shape=stencil(nZBLDoAgDERP0z3SIyjew0SURgSD+Lu9kMZoXLhwN9N5bdMClrNpJg1SzDH4QW/URgNYgZTkjA4UkwJUgGXng+6DX1zLfmoymdXo1zxh5z6RO6Q42BWCfc2oJfdAr/AX/IH+BF/rk7hv7MjaZ/L+RirxJ1Gd);strokeColor=#939393;spacingTop=-3;spacingBottom=-3;spacingLeft=-3;spacingRight=-3;points=[];labelBackgroundColor=none;rounded=0;html=1;whiteSpace=wrap;" parent="L6_ODTOo7d9szGgP1L_s-24" vertex="1">
          <mxGeometry x="72.08333333333334" y="3.6852631578947346" width="53.75" height="116.84210526315786" as="geometry" />
        </mxCell>
        <mxCell id="L6_ODTOo7d9szGgP1L_s-27" value="&lt;div style=&quot;&quot;&gt;&lt;p style=&quot;text-align:left;margin-left:0;margin-right:0;margin-top:0px;margin-bottom:0px;text-indent:0;vertical-align:middle;direction:ltr;&quot;&gt;&lt;/p&gt;&lt;ul&gt;&lt;li&gt;&lt;font style=&quot;font-size: 12px; font-family: Calibri; color: rgb(255, 255, 255); direction: ltr; letter-spacing: 0px; line-height: 120%; opacity: 1;&quot;&gt;Multiple&lt;/font&gt;&lt;font style=&quot;font-size: 12px; font-family: &amp;quot;Segoe UI&amp;quot;; color: rgb(255, 255, 255); direction: ltr; letter-spacing: 0px; line-height: 120%; opacity: 1;&quot;&gt;&amp;nbsp;Geographic Regions: Yes&lt;br&gt;&lt;/font&gt;&lt;/li&gt;&lt;li&gt;&lt;font style=&quot;font-size: 12px; font-family: Calibri; color: rgb(255, 255, 255); direction: ltr; letter-spacing: 0px; line-height: 120%; opacity: 1;&quot;&gt;Multiple&amp;nbsp;&lt;/font&gt;&lt;font style=&quot;font-size: 12px; font-family: &amp;quot;Segoe UI&amp;quot;; color: rgb(255, 255, 255); direction: ltr; letter-spacing: 0px; line-height: 120%; opacity: 1;&quot;&gt;Availability Zones: No&lt;br&gt;&lt;/font&gt;&lt;/li&gt;&lt;li&gt;&lt;font style=&quot;font-size: 12px; font-family: Calibri; color: rgb(255, 255, 255); direction: ltr; letter-spacing: 0px; line-height: 120%; opacity: 1;&quot;&gt;Endorsed Workloads: Devlopment,Test,Production&lt;/font&gt;&lt;/li&gt;&lt;li&gt;&lt;font style=&quot;font-size: 12px; font-family: Calibri; color: rgb(255, 255, 255); direction: ltr; letter-spacing: 0px; line-height: 120%; opacity: 1;&quot;&gt;Endorsed for Cirtical Systems: Yes&lt;/font&gt;&lt;/li&gt;&lt;li&gt;&lt;font style=&quot;font-size: 12px; font-family: Calibri; color: rgb(255, 255, 255); direction: ltr; letter-spacing: 0px; line-height: 120%; opacity: 1;&quot;&gt;Enterprise Support Level: High&lt;/font&gt;&lt;/li&gt;&lt;/ul&gt;&lt;/div&gt;" style="verticalAlign=middle;align=left;overflow=width;vsdxID=66;fillColor=#70ad47;gradientColor=none;shape=stencil(nZBLDoAgDERP0z3SIyjew0SURgSD+Lu9kMZoXLhwN9O+tukAlrNpJg1SzDH4QW/URgNYgZTkjA4UkwJUgGXng+6DX1zLfmoymdXo17xh5zmRJ6Q42BWCfc2oJfdAr+Yv+AP9Cb7OJ3H/2JG1HNGz/84klThPVCc=);dashed=1;strokeColor=#ffffff;spacingTop=-3;spacingBottom=-3;points=[];labelBackgroundColor=none;rounded=0;html=1;whiteSpace=wrap;" parent="L6_ODTOo7d9szGgP1L_s-24" vertex="1">
          <mxGeometry x="50" y="8.95" width="310" height="91.05" as="geometry" />
        </mxCell>
        <UserObject label="" tags="Background" id="L6_ODTOo7d9szGgP1L_s-28">
          <mxCell style="vsdxID=62;fillColor=none;gradientColor=none;strokeColor=none;points=[];labelBackgroundColor=none;rounded=0;html=1;whiteSpace=wrap;" parent="1" vertex="1">
            <mxGeometry x="-740" y="465" width="420" height="130" as="geometry" />
          </mxCell>
        </UserObject>
        <mxCell id="L6_ODTOo7d9szGgP1L_s-29" style="vsdxID=63;fillColor=#70ad47;gradientColor=none;shape=stencil(vVTBbsMgDP0ajkHEpKE7d91/oJYkqCxEhK3Z348MqoZQOmmacjP2w/Z7GCN6GDs+CARktEZfxFWebYfoKwKQfSeMtM5C9IjoodFGtEZ/9Gd/HviMnK13/TlnmPy9EjBU8y0gX8FDyM/5zcOV7BfwPcOs/kc4NycXM4tmmIebgK8A70N/U5zhlnHHMIQaU8EnORZGW26l7n08oBU3rShcvaJRvI1C41WIIXE/JLQu7tpj1VNC5CUhBGVEKBWJbEUnV/ox92RU/g5OZCrrRKaqjmTKCb+BTLmBy5Gh5YoMxSR+8/y322KIf/vzzrjvi0Yq5dfNMr7eL87ldxM9fgM=);strokeColor=none;points=[];labelBackgroundColor=none;rounded=0;html=1;whiteSpace=wrap;fontSize=9;" parent="L6_ODTOo7d9szGgP1L_s-28" vertex="1">
          <mxGeometry x="-80" width="480" height="110" as="geometry" />
        </mxCell>
        <mxCell id="L6_ODTOo7d9szGgP1L_s-30" value="&lt;div style=&quot;font-size: 1px&quot;&gt;&lt;/div&gt;" style="verticalAlign=middle;align=center;overflow=width;vsdxID=65;fillColor=#70ad47;gradientColor=none;fillOpacity=0;shape=stencil(nZBLDoAgDERP0z3SIyjew0SURgSD+Lu9kMZoXLhwN9N5bdMClrNpJg1SzDH4QW/URgNYgZTkjA4UkwJUgGXng+6DX1zLfmoymdXo1zxh5z6RO6Q42BWCfc2oJfdAr/AX/IH+BF/rk7hv7MjaZ/L+RirxJ1Gd);strokeColor=#939393;spacingTop=-3;spacingBottom=-3;spacingLeft=-3;spacingRight=-3;points=[];labelBackgroundColor=none;rounded=0;html=1;whiteSpace=wrap;" parent="L6_ODTOo7d9szGgP1L_s-28" vertex="1">
          <mxGeometry x="72.08333333333334" y="3.6852631578947346" width="53.75" height="116.84210526315786" as="geometry" />
        </mxCell>
        <mxCell id="L6_ODTOo7d9szGgP1L_s-31" value="&lt;div style=&quot;&quot;&gt;&lt;p style=&quot;text-align:left;margin-left:0;margin-right:0;margin-top:0px;margin-bottom:0px;text-indent:0;vertical-align:middle;direction:ltr;&quot;&gt;&lt;/p&gt;&lt;ul&gt;&lt;li&gt;&lt;font style=&quot;font-size: 12px; font-family: Calibri; color: rgb(255, 255, 255); direction: ltr; letter-spacing: 0px; line-height: 120%; opacity: 1;&quot;&gt;Multiple&lt;/font&gt;&lt;font style=&quot;font-size: 12px; font-family: &amp;quot;Segoe UI&amp;quot;; color: rgb(255, 255, 255); direction: ltr; letter-spacing: 0px; line-height: 120%; opacity: 1;&quot;&gt;&amp;nbsp;Geographic Regions: No&lt;br&gt;&lt;/font&gt;&lt;/li&gt;&lt;li&gt;&lt;font style=&quot;font-size: 12px; font-family: Calibri; color: rgb(255, 255, 255); direction: ltr; letter-spacing: 0px; line-height: 120%; opacity: 1;&quot;&gt;Multiple&amp;nbsp;&lt;/font&gt;&lt;font style=&quot;font-size: 12px; font-family: &amp;quot;Segoe UI&amp;quot;; color: rgb(255, 255, 255); direction: ltr; letter-spacing: 0px; line-height: 120%; opacity: 1;&quot;&gt;Availability Zones: No&lt;br&gt;&lt;/font&gt;&lt;/li&gt;&lt;li&gt;&lt;font style=&quot;font-size: 12px; font-family: Calibri; color: rgb(255, 255, 255); direction: ltr; letter-spacing: 0px; line-height: 120%; opacity: 1;&quot;&gt;Endorsed Workloads: Devlopment,Test,Production&lt;/font&gt;&lt;/li&gt;&lt;li&gt;&lt;font style=&quot;font-size: 12px; font-family: Calibri; color: rgb(255, 255, 255); direction: ltr; letter-spacing: 0px; line-height: 120%; opacity: 1;&quot;&gt;Endorsed for Cirtical Systems: No&lt;/font&gt;&lt;/li&gt;&lt;li&gt;&lt;font style=&quot;font-size: 12px; font-family: Calibri; color: rgb(255, 255, 255); direction: ltr; letter-spacing: 0px; line-height: 120%; opacity: 1;&quot;&gt;Enterprise Support Level: High&lt;/font&gt;&lt;/li&gt;&lt;/ul&gt;&lt;/div&gt;" style="verticalAlign=middle;align=left;overflow=width;vsdxID=66;fillColor=#70ad47;gradientColor=none;shape=stencil(nZBLDoAgDERP0z3SIyjew0SURgSD+Lu9kMZoXLhwN9O+tukAlrNpJg1SzDH4QW/URgNYgZTkjA4UkwJUgGXng+6DX1zLfmoymdXo17xh5zmRJ6Q42BWCfc2oJfdAr+Yv+AP9Cb7OJ3H/2JG1HNGz/84klThPVCc=);dashed=1;strokeColor=#ffffff;spacingTop=-3;spacingBottom=-3;points=[];labelBackgroundColor=none;rounded=0;html=1;whiteSpace=wrap;" parent="L6_ODTOo7d9szGgP1L_s-28" vertex="1">
          <mxGeometry x="50" y="8.95" width="310" height="91.05" as="geometry" />
        </mxCell>
        <UserObject label="" tags="Background" id="L6_ODTOo7d9szGgP1L_s-32">
          <mxCell style="vsdxID=62;fillColor=none;gradientColor=none;strokeColor=none;points=[];labelBackgroundColor=none;rounded=0;html=1;whiteSpace=wrap;" parent="1" vertex="1">
            <mxGeometry x="-740" y="595" width="420" height="130" as="geometry" />
          </mxCell>
        </UserObject>
        <mxCell id="L6_ODTOo7d9szGgP1L_s-33" style="vsdxID=63;fillColor=#70ad47;gradientColor=none;shape=stencil(vVTBbsMgDP0ajkHEpKE7d91/oJYkqCxEhK3Z348MqoZQOmmacjP2w/Z7GCN6GDs+CARktEZfxFWebYfoKwKQfSeMtM5C9IjoodFGtEZ/9Gd/HviMnK13/TlnmPy9EjBU8y0gX8FDyM/5zcOV7BfwPcOs/kc4NycXM4tmmIebgK8A70N/U5zhlnHHMIQaU8EnORZGW26l7n08oBU3rShcvaJRvI1C41WIIXE/JLQu7tpj1VNC5CUhBGVEKBWJbEUnV/ox92RU/g5OZCrrRKaqjmTKCb+BTLmBy5Gh5YoMxSR+8/y322KIf/vzzrjvi0Yq5dfNMr7eL87ldxM9fgM=);strokeColor=none;points=[];labelBackgroundColor=none;rounded=0;html=1;whiteSpace=wrap;fontSize=9;" parent="L6_ODTOo7d9szGgP1L_s-32" vertex="1">
          <mxGeometry x="-80" width="480" height="110" as="geometry" />
        </mxCell>
        <mxCell id="L6_ODTOo7d9szGgP1L_s-34" value="&lt;div style=&quot;font-size: 1px&quot;&gt;&lt;/div&gt;" style="verticalAlign=middle;align=center;overflow=width;vsdxID=65;fillColor=#70ad47;gradientColor=none;fillOpacity=0;shape=stencil(nZBLDoAgDERP0z3SIyjew0SURgSD+Lu9kMZoXLhwN9N5bdMClrNpJg1SzDH4QW/URgNYgZTkjA4UkwJUgGXng+6DX1zLfmoymdXo1zxh5z6RO6Q42BWCfc2oJfdAr/AX/IH+BF/rk7hv7MjaZ/L+RirxJ1Gd);strokeColor=#939393;spacingTop=-3;spacingBottom=-3;spacingLeft=-3;spacingRight=-3;points=[];labelBackgroundColor=none;rounded=0;html=1;whiteSpace=wrap;" parent="L6_ODTOo7d9szGgP1L_s-32" vertex="1">
          <mxGeometry x="72.08333333333334" y="3.6852631578947346" width="53.75" height="116.84210526315786" as="geometry" />
        </mxCell>
        <mxCell id="L6_ODTOo7d9szGgP1L_s-35" value="&lt;div style=&quot;&quot;&gt;&lt;p style=&quot;text-align:left;margin-left:0;margin-right:0;margin-top:0px;margin-bottom:0px;text-indent:0;vertical-align:middle;direction:ltr;&quot;&gt;&lt;/p&gt;&lt;ul&gt;&lt;li&gt;&lt;font style=&quot;font-size: 12px; font-family: Calibri; color: rgb(255, 255, 255); direction: ltr; letter-spacing: 0px; line-height: 120%; opacity: 1;&quot;&gt;Multiple&lt;/font&gt;&lt;font style=&quot;font-size: 12px; font-family: &amp;quot;Segoe UI&amp;quot;; color: rgb(255, 255, 255); direction: ltr; letter-spacing: 0px; line-height: 120%; opacity: 1;&quot;&gt;&amp;nbsp;Geographic Regions: No&lt;br&gt;&lt;/font&gt;&lt;/li&gt;&lt;li&gt;&lt;font style=&quot;font-size: 12px; font-family: Calibri; color: rgb(255, 255, 255); direction: ltr; letter-spacing: 0px; line-height: 120%; opacity: 1;&quot;&gt;Multiple&amp;nbsp;&lt;/font&gt;&lt;font style=&quot;font-size: 12px; font-family: &amp;quot;Segoe UI&amp;quot;; color: rgb(255, 255, 255); direction: ltr; letter-spacing: 0px; line-height: 120%; opacity: 1;&quot;&gt;Availability Zones: No&lt;br&gt;&lt;/font&gt;&lt;/li&gt;&lt;li&gt;&lt;font style=&quot;font-size: 12px; font-family: Calibri; color: rgb(255, 255, 255); direction: ltr; letter-spacing: 0px; line-height: 120%; opacity: 1;&quot;&gt;Endorsed Workloads: Devlopment,Test,Production&lt;/font&gt;&lt;/li&gt;&lt;li&gt;&lt;font style=&quot;font-size: 12px; font-family: Calibri; color: rgb(255, 255, 255); direction: ltr; letter-spacing: 0px; line-height: 120%; opacity: 1;&quot;&gt;Endorsed for Cirtical Systems: No&lt;/font&gt;&lt;/li&gt;&lt;li&gt;&lt;font style=&quot;font-size: 12px; font-family: Calibri; color: rgb(255, 255, 255); direction: ltr; letter-spacing: 0px; line-height: 120%; opacity: 1;&quot;&gt;Enterprise Support Level: High&lt;/font&gt;&lt;/li&gt;&lt;/ul&gt;&lt;/div&gt;" style="verticalAlign=middle;align=left;overflow=width;vsdxID=66;fillColor=#70ad47;gradientColor=none;shape=stencil(nZBLDoAgDERP0z3SIyjew0SURgSD+Lu9kMZoXLhwN9O+tukAlrNpJg1SzDH4QW/URgNYgZTkjA4UkwJUgGXng+6DX1zLfmoymdXo17xh5zmRJ6Q42BWCfc2oJfdAr+Yv+AP9Cb7OJ3H/2JG1HNGz/84klThPVCc=);dashed=1;strokeColor=#ffffff;spacingTop=-3;spacingBottom=-3;points=[];labelBackgroundColor=none;rounded=0;html=1;whiteSpace=wrap;" parent="L6_ODTOo7d9szGgP1L_s-32" vertex="1">
          <mxGeometry x="50" y="8.95" width="310" height="91.05" as="geometry" />
        </mxCell>
        <mxCell id="L6_ODTOo7d9szGgP1L_s-36" value="&lt;div style=&quot;&quot;&gt;&lt;font style=&quot;font-family: &amp;quot;Segoe UI&amp;quot;; color: rgb(255, 255, 255); direction: ltr; letter-spacing: 0px; line-height: 120%; opacity: 1;&quot;&gt;OpenShift Container Platform&amp;nbsp;&lt;/font&gt;&lt;/div&gt;&lt;div style=&quot;&quot;&gt;&lt;font style=&quot;font-family: &amp;quot;Segoe UI&amp;quot;; color: rgb(255, 255, 255); direction: ltr; letter-spacing: 0px; line-height: 120%; opacity: 1;&quot;&gt;Gold&lt;/font&gt;&lt;/div&gt;" style="verticalAlign=middle;align=left;overflow=width;vsdxID=64;fillColor=#70ad47;gradientColor=none;shape=stencil(nZBLDoAgDERP0z3SIyjew0SURgSD+Lu9kMZoXLhwN9N5bdMClrNpJg1SzDH4QW/URgNYgZTkjA4UkwJUgGXng+6DX1zLfmoymdXo1zxh5z6RO6Q42BWCfc2oJfdAr/AX/IH+BF/rk7hv7MjaZ/L+RirxJ1Gd);strokeColor=#939393;spacingTop=-3;spacingBottom=-3;points=[];labelBackgroundColor=none;rounded=0;html=1;whiteSpace=wrap;" parent="1" vertex="1">
          <mxGeometry x="-780" y="355.27" width="85.83" height="68.42" as="geometry" />
        </mxCell>
        <mxCell id="L6_ODTOo7d9szGgP1L_s-37" value="&lt;div style=&quot;&quot;&gt;&lt;font style=&quot;direction: ltr; letter-spacing: 0px; line-height: 120%; opacity: 1;&quot;&gt;&lt;div style=&quot;color: rgb(0, 0, 0); font-family: Helvetica; border-color: var(--border-color);&quot;&gt;&lt;font style=&quot;border-color: var(--border-color); font-family: &amp;quot;Segoe UI&amp;quot;; color: rgb(255, 255, 255); direction: ltr; letter-spacing: 0px; line-height: 14.4px; opacity: 1;&quot;&gt;OpenShift Container Platform&amp;nbsp;&lt;/font&gt;&lt;/div&gt;&lt;div style=&quot;border-color: var(--border-color);&quot;&gt;&lt;font face=&quot;Segoe UI&quot; color=&quot;#ffffff&quot;&gt;Silver&lt;/font&gt;&lt;/div&gt;&lt;/font&gt;&lt;/div&gt;" style="verticalAlign=middle;align=left;overflow=width;vsdxID=64;fillColor=#70ad47;gradientColor=none;shape=stencil(nZBLDoAgDERP0z3SIyjew0SURgSD+Lu9kMZoXLhwN9N5bdMClrNpJg1SzDH4QW/URgNYgZTkjA4UkwJUgGXng+6DX1zLfmoymdXo1zxh5z6RO6Q42BWCfc2oJfdAr/AX/IH+BF/rk7hv7MjaZ/L+RirxJ1Gd);strokeColor=#939393;spacingTop=-3;spacingBottom=-3;points=[];labelBackgroundColor=none;rounded=0;html=1;whiteSpace=wrap;" parent="1" vertex="1">
          <mxGeometry x="-780" y="490.27" width="85.83" height="58.42" as="geometry" />
        </mxCell>
        <mxCell id="L6_ODTOo7d9szGgP1L_s-38" value="&lt;div style=&quot;&quot;&gt;&lt;font style=&quot;direction: ltr; letter-spacing: 0px; line-height: 120%; opacity: 1;&quot;&gt;&lt;div style=&quot;color: rgb(0, 0, 0); font-family: Helvetica; border-color: var(--border-color);&quot;&gt;&lt;font style=&quot;border-color: var(--border-color); font-family: &amp;quot;Segoe UI&amp;quot;; color: rgb(255, 255, 255); direction: ltr; letter-spacing: 0px; line-height: 14.4px; opacity: 1;&quot;&gt;OpenShift Container Platform&amp;nbsp;&lt;/font&gt;&lt;/div&gt;&lt;div style=&quot;border-color: var(--border-color);&quot;&gt;&lt;font face=&quot;Segoe UI&quot; color=&quot;#ffffff&quot;&gt;Emerald&lt;/font&gt;&lt;/div&gt;&lt;/font&gt;&lt;/div&gt;" style="verticalAlign=middle;align=left;overflow=width;vsdxID=64;fillColor=#70ad47;gradientColor=none;shape=stencil(nZBLDoAgDERP0z3SIyjew0SURgSD+Lu9kMZoXLhwN9N5bdMClrNpJg1SzDH4QW/URgNYgZTkjA4UkwJUgGXng+6DX1zLfmoymdXo1zxh5z6RO6Q42BWCfc2oJfdAr/AX/IH+BF/rk7hv7MjaZ/L+RirxJ1Gd);strokeColor=#939393;spacingTop=-3;spacingBottom=-3;points=[];labelBackgroundColor=none;rounded=0;html=1;whiteSpace=wrap;" parent="1" vertex="1">
          <mxGeometry x="-780" y="615" width="85.83" height="58.42" as="geometry" />
        </mxCell>
        <mxCell id="L6_ODTOo7d9szGgP1L_s-39" style="vsdxID=63;fillColor=#bac8d3;shape=stencil(vVTBbsMgDP0ajkHEpKE7d91/oJYkqCxEhK3Z348MqoZQOmmacjP2w/Z7GCN6GDs+CARktEZfxFWebYfoKwKQfSeMtM5C9IjoodFGtEZ/9Gd/HviMnK13/TlnmPy9EjBU8y0gX8FDyM/5zcOV7BfwPcOs/kc4NycXM4tmmIebgK8A70N/U5zhlnHHMIQaU8EnORZGW26l7n08oBU3rShcvaJRvI1C41WIIXE/JLQu7tpj1VNC5CUhBGVEKBWJbEUnV/ox92RU/g5OZCrrRKaqjmTKCb+BTLmBy5Gh5YoMxSR+8/y322KIf/vzzrjvi0Yq5dfNMr7eL87ldxM9fgM=);strokeColor=#23445d;points=[];labelBackgroundColor=none;rounded=0;html=1;whiteSpace=wrap;fontSize=9;" parent="1" vertex="1">
          <mxGeometry x="-810" y="984.47" width="480" height="110" as="geometry" />
        </mxCell>
        <mxCell id="L6_ODTOo7d9szGgP1L_s-40" value="&lt;div style=&quot;&quot;&gt;&lt;p style=&quot;text-align:left;margin-left:0;margin-right:0;margin-top:0px;margin-bottom:0px;text-indent:0;vertical-align:middle;direction:ltr;&quot;&gt;&lt;/p&gt;&lt;ul&gt;&lt;li&gt;&lt;font style=&quot;font-size: 12px; font-family: Calibri; color: rgb(255, 255, 255); direction: ltr; letter-spacing: 0px; line-height: 120%; opacity: 1;&quot;&gt;Multiple&lt;/font&gt;&lt;font style=&quot;font-size: 12px; font-family: &amp;quot;Segoe UI&amp;quot;; color: rgb(255, 255, 255); direction: ltr; letter-spacing: 0px; line-height: 120%; opacity: 1;&quot;&gt;&amp;nbsp;Geographic Regions: TBD&lt;br&gt;&lt;/font&gt;&lt;/li&gt;&lt;li&gt;&lt;font style=&quot;font-size: 12px; font-family: Calibri; color: rgb(255, 255, 255); direction: ltr; letter-spacing: 0px; line-height: 120%; opacity: 1;&quot;&gt;Multiple&amp;nbsp;&lt;/font&gt;&lt;font style=&quot;font-size: 12px; font-family: &amp;quot;Segoe UI&amp;quot;; color: rgb(255, 255, 255); direction: ltr; letter-spacing: 0px; line-height: 120%; opacity: 1;&quot;&gt;Availability Zones: TBD&lt;br&gt;&lt;/font&gt;&lt;/li&gt;&lt;li&gt;&lt;font style=&quot;font-size: 12px; font-family: Calibri; color: rgb(255, 255, 255); direction: ltr; letter-spacing: 0px; line-height: 120%; opacity: 1;&quot;&gt;Endorsed Workloads: Pilot/POC&lt;/font&gt;&lt;/li&gt;&lt;li&gt;&lt;font style=&quot;font-size: 12px; font-family: Calibri; color: rgb(255, 255, 255); direction: ltr; letter-spacing: 0px; line-height: 120%; opacity: 1;&quot;&gt;Endorsed for Critical Systems: No&lt;/font&gt;&lt;/li&gt;&lt;li&gt;&lt;font style=&quot;font-size: 12px; font-family: Calibri; color: rgb(255, 255, 255); direction: ltr; letter-spacing: 0px; line-height: 120%; opacity: 1;&quot;&gt;Enterprise Support Level: Low&lt;/font&gt;&lt;/li&gt;&lt;/ul&gt;&lt;/div&gt;" style="verticalAlign=middle;align=left;overflow=width;vsdxID=66;fillColor=#bac8d3;shape=stencil(nZBLDoAgDERP0z3SIyjew0SURgSD+Lu9kMZoXLhwN9O+tukAlrNpJg1SzDH4QW/URgNYgZTkjA4UkwJUgGXng+6DX1zLfmoymdXo17xh5zmRJ6Q42BWCfc2oJfdAr+Yv+AP9Cb7OJ3H/2JG1HNGz/84klThPVCc=);dashed=1;strokeColor=#23445d;spacingTop=-3;spacingBottom=-3;points=[];labelBackgroundColor=none;rounded=0;html=1;whiteSpace=wrap;" parent="1" vertex="1">
          <mxGeometry x="-690" y="993.95" width="310" height="91.05" as="geometry" />
        </mxCell>
        <mxCell id="L6_ODTOo7d9szGgP1L_s-41" value="&lt;div style=&quot;&quot;&gt;&lt;font face=&quot;Segoe UI&quot; color=&quot;#ffffff&quot; style=&quot;direction: ltr; letter-spacing: 0px; line-height: 120%; opacity: 1;&quot;&gt;&lt;div style=&quot;border-color: var(--border-color);&quot;&gt;Oracle&lt;/div&gt;&lt;div style=&quot;border-color: var(--border-color);&quot;&gt;Cloud&lt;/div&gt;&lt;div style=&quot;border-color: var(--border-color);&quot;&gt;Infrastructure&lt;/div&gt;&lt;/font&gt;&lt;/div&gt;" style="verticalAlign=middle;align=left;overflow=width;vsdxID=64;fillColor=#bac8d3;shape=stencil(nZBLDoAgDERP0z3SIyjew0SURgSD+Lu9kMZoXLhwN9N5bdMClrNpJg1SzDH4QW/URgNYgZTkjA4UkwJUgGXng+6DX1zLfmoymdXo1zxh5z6RO6Q42BWCfc2oJfdAr/AX/IH+BF/rk7hv7MjaZ/L+RirxJ1Gd);strokeColor=#23445d;spacingTop=-3;spacingBottom=-3;points=[];labelBackgroundColor=none;rounded=0;html=1;whiteSpace=wrap;" parent="1" vertex="1">
          <mxGeometry x="-780" y="1005" width="85.83" height="58.42" as="geometry" />
        </mxCell>
        <mxCell id="L6_ODTOo7d9szGgP1L_s-42" style="vsdxID=63;fillColor=#bac8d3;shape=stencil(vVTBbsMgDP0ajkHEpKE7d91/oJYkqCxEhK3Z348MqoZQOmmacjP2w/Z7GCN6GDs+CARktEZfxFWebYfoKwKQfSeMtM5C9IjoodFGtEZ/9Gd/HviMnK13/TlnmPy9EjBU8y0gX8FDyM/5zcOV7BfwPcOs/kc4NycXM4tmmIebgK8A70N/U5zhlnHHMIQaU8EnORZGW26l7n08oBU3rShcvaJRvI1C41WIIXE/JLQu7tpj1VNC5CUhBGVEKBWJbEUnV/ox92RU/g5OZCrrRKaqjmTKCb+BTLmBy5Gh5YoMxSR+8/y322KIf/vzzrjvi0Yq5dfNMr7eL87ldxM9fgM=);strokeColor=#23445d;points=[];labelBackgroundColor=none;rounded=0;html=1;whiteSpace=wrap;fontSize=9;" parent="1" vertex="1">
          <mxGeometry x="-810" y="855" width="480" height="110" as="geometry" />
        </mxCell>
        <mxCell id="L6_ODTOo7d9szGgP1L_s-43" value="&lt;div style=&quot;&quot;&gt;&lt;p style=&quot;text-align:left;margin-left:0;margin-right:0;margin-top:0px;margin-bottom:0px;text-indent:0;vertical-align:middle;direction:ltr;&quot;&gt;&lt;/p&gt;&lt;ul&gt;&lt;li&gt;&lt;font style=&quot;font-size: 12px; font-family: Calibri; color: rgb(255, 255, 255); direction: ltr; letter-spacing: 0px; line-height: 120%; opacity: 1;&quot;&gt;Multiple&lt;/font&gt;&lt;font style=&quot;font-size: 12px; font-family: &amp;quot;Segoe UI&amp;quot;; color: rgb(255, 255, 255); direction: ltr; letter-spacing: 0px; line-height: 120%; opacity: 1;&quot;&gt;&amp;nbsp;Geographic Regions: TBD&lt;br&gt;&lt;/font&gt;&lt;/li&gt;&lt;li&gt;&lt;font style=&quot;font-size: 12px; font-family: Calibri; color: rgb(255, 255, 255); direction: ltr; letter-spacing: 0px; line-height: 120%; opacity: 1;&quot;&gt;Multiple&amp;nbsp;&lt;/font&gt;&lt;font style=&quot;font-size: 12px; font-family: &amp;quot;Segoe UI&amp;quot;; color: rgb(255, 255, 255); direction: ltr; letter-spacing: 0px; line-height: 120%; opacity: 1;&quot;&gt;Availability Zones: TBD&lt;br&gt;&lt;/font&gt;&lt;/li&gt;&lt;li&gt;&lt;font style=&quot;font-size: 12px; font-family: Calibri; color: rgb(255, 255, 255); direction: ltr; letter-spacing: 0px; line-height: 120%; opacity: 1;&quot;&gt;Endorsed Workloads: Pilot/POC&lt;/font&gt;&lt;/li&gt;&lt;li&gt;&lt;font style=&quot;font-size: 12px; font-family: Calibri; color: rgb(255, 255, 255); direction: ltr; letter-spacing: 0px; line-height: 120%; opacity: 1;&quot;&gt;Endorsed for Critical Systems: No&lt;/font&gt;&lt;/li&gt;&lt;li&gt;&lt;font style=&quot;font-size: 12px; font-family: Calibri; color: rgb(255, 255, 255); direction: ltr; letter-spacing: 0px; line-height: 120%; opacity: 1;&quot;&gt;Enterprise Support Level: Low&lt;/font&gt;&lt;/li&gt;&lt;/ul&gt;&lt;/div&gt;" style="verticalAlign=middle;align=left;overflow=width;vsdxID=66;fillColor=#bac8d3;shape=stencil(nZBLDoAgDERP0z3SIyjew0SURgSD+Lu9kMZoXLhwN9O+tukAlrNpJg1SzDH4QW/URgNYgZTkjA4UkwJUgGXng+6DX1zLfmoymdXo17xh5zmRJ6Q42BWCfc2oJfdAr+Yv+AP9Cb7OJ3H/2JG1HNGz/84klThPVCc=);dashed=1;strokeColor=#23445d;spacingTop=-3;spacingBottom=-3;points=[];labelBackgroundColor=none;rounded=0;html=1;whiteSpace=wrap;" parent="1" vertex="1">
          <mxGeometry x="-680" y="863.95" width="310" height="91.05" as="geometry" />
        </mxCell>
        <mxCell id="L6_ODTOo7d9szGgP1L_s-44" value="&lt;div style=&quot;&quot;&gt;&lt;font face=&quot;Segoe UI&quot; color=&quot;#ffffff&quot; style=&quot;direction: ltr; letter-spacing: 0px; line-height: 120%; opacity: 1;&quot;&gt;&lt;div style=&quot;border-color: var(--border-color);&quot;&gt;Google&lt;/div&gt;&lt;/font&gt;&lt;/div&gt;" style="verticalAlign=middle;align=left;overflow=width;vsdxID=64;fillColor=#bac8d3;shape=stencil(nZBLDoAgDERP0z3SIyjew0SURgSD+Lu9kMZoXLhwN9N5bdMClrNpJg1SzDH4QW/URgNYgZTkjA4UkwJUgGXng+6DX1zLfmoymdXo1zxh5z6RO6Q42BWCfc2oJfdAr/AX/IH+BF/rk7hv7MjaZ/L+RirxJ1Gd);strokeColor=#23445d;spacingTop=-3;spacingBottom=-3;points=[];labelBackgroundColor=none;rounded=0;html=1;whiteSpace=wrap;" parent="1" vertex="1">
          <mxGeometry x="-770" y="875" width="85.83" height="58.42" as="geometry" />
        </mxCell>
        <mxCell id="L6_ODTOo7d9szGgP1L_s-45" style="vsdxID=63;fillColor=#bac8d3;shape=stencil(vVTBbsMgDP0ajkHEpKE7d91/oJYkqCxEhK3Z348MqoZQOmmacjP2w/Z7GCN6GDs+CARktEZfxFWebYfoKwKQfSeMtM5C9IjoodFGtEZ/9Gd/HviMnK13/TlnmPy9EjBU8y0gX8FDyM/5zcOV7BfwPcOs/kc4NycXM4tmmIebgK8A70N/U5zhlnHHMIQaU8EnORZGW26l7n08oBU3rShcvaJRvI1C41WIIXE/JLQu7tpj1VNC5CUhBGVEKBWJbEUnV/ox92RU/g5OZCrrRKaqjmTKCb+BTLmBy5Gh5YoMxSR+8/y322KIf/vzzrjvi0Yq5dfNMr7eL87ldxM9fgM=);strokeColor=#23445d;points=[];labelBackgroundColor=none;rounded=0;html=1;whiteSpace=wrap;fontSize=9;" parent="1" vertex="1">
          <mxGeometry x="-810" y="734.47" width="480" height="110" as="geometry" />
        </mxCell>
        <mxCell id="L6_ODTOo7d9szGgP1L_s-46" value="&lt;div style=&quot;&quot;&gt;&lt;p style=&quot;text-align:left;margin-left:0;margin-right:0;margin-top:0px;margin-bottom:0px;text-indent:0;vertical-align:middle;direction:ltr;&quot;&gt;&lt;/p&gt;&lt;ul&gt;&lt;li&gt;&lt;font style=&quot;font-size: 12px; font-family: Calibri; color: rgb(255, 255, 255); direction: ltr; letter-spacing: 0px; line-height: 120%; opacity: 1;&quot;&gt;Multiple&lt;/font&gt;&lt;font style=&quot;font-size: 12px; font-family: &amp;quot;Segoe UI&amp;quot;; color: rgb(255, 255, 255); direction: ltr; letter-spacing: 0px; line-height: 120%; opacity: 1;&quot;&gt;&amp;nbsp;Geographic Regions: TBD&lt;br&gt;&lt;/font&gt;&lt;/li&gt;&lt;li&gt;&lt;font style=&quot;font-size: 12px; font-family: Calibri; color: rgb(255, 255, 255); direction: ltr; letter-spacing: 0px; line-height: 120%; opacity: 1;&quot;&gt;Multiple&amp;nbsp;&lt;/font&gt;&lt;font style=&quot;font-size: 12px; font-family: &amp;quot;Segoe UI&amp;quot;; color: rgb(255, 255, 255); direction: ltr; letter-spacing: 0px; line-height: 120%; opacity: 1;&quot;&gt;Availability Zones: TBD&lt;br&gt;&lt;/font&gt;&lt;/li&gt;&lt;li&gt;&lt;font style=&quot;font-size: 12px; font-family: Calibri; color: rgb(255, 255, 255); direction: ltr; letter-spacing: 0px; line-height: 120%; opacity: 1;&quot;&gt;Endorsed Workloads: Pilot/POC&lt;/font&gt;&lt;/li&gt;&lt;li&gt;&lt;font style=&quot;font-size: 12px; font-family: Calibri; color: rgb(255, 255, 255); direction: ltr; letter-spacing: 0px; line-height: 120%; opacity: 1;&quot;&gt;Endorsed for Critical Systems: Yes&lt;/font&gt;&lt;/li&gt;&lt;li&gt;&lt;font style=&quot;font-size: 12px; font-family: Calibri; color: rgb(255, 255, 255); direction: ltr; letter-spacing: 0px; line-height: 120%; opacity: 1;&quot;&gt;Enterprise Support Level: Low&lt;/font&gt;&lt;/li&gt;&lt;/ul&gt;&lt;/div&gt;" style="verticalAlign=middle;align=left;overflow=width;vsdxID=66;fillColor=#bac8d3;shape=stencil(nZBLDoAgDERP0z3SIyjew0SURgSD+Lu9kMZoXLhwN9O+tukAlrNpJg1SzDH4QW/URgNYgZTkjA4UkwJUgGXng+6DX1zLfmoymdXo17xh5zmRJ6Q42BWCfc2oJfdAr+Yv+AP9Cb7OJ3H/2JG1HNGz/84klThPVCc=);dashed=1;strokeColor=#23445d;spacingTop=-3;spacingBottom=-3;points=[];labelBackgroundColor=none;rounded=0;html=1;whiteSpace=wrap;" parent="1" vertex="1">
          <mxGeometry x="-680" y="743.95" width="310" height="91.05" as="geometry" />
        </mxCell>
        <mxCell id="L6_ODTOo7d9szGgP1L_s-47" value="&lt;div style=&quot;&quot;&gt;&lt;font face=&quot;Segoe UI&quot; color=&quot;#ffffff&quot; style=&quot;direction: ltr; letter-spacing: 0px; line-height: 120%; opacity: 1;&quot;&gt;&lt;div style=&quot;border-color: var(--border-color);&quot;&gt;Microsoft&lt;/div&gt;&lt;div style=&quot;border-color: var(--border-color);&quot;&gt;Azure&lt;/div&gt;&lt;/font&gt;&lt;/div&gt;" style="verticalAlign=middle;align=left;overflow=width;vsdxID=64;fillColor=#bac8d3;shape=stencil(nZBLDoAgDERP0z3SIyjew0SURgSD+Lu9kMZoXLhwN9N5bdMClrNpJg1SzDH4QW/URgNYgZTkjA4UkwJUgGXng+6DX1zLfmoymdXo1zxh5z6RO6Q42BWCfc2oJfdAr/AX/IH+BF/rk7hv7MjaZ/L+RirxJ1Gd);strokeColor=#23445d;spacingTop=-3;spacingBottom=-3;points=[];labelBackgroundColor=none;rounded=0;html=1;whiteSpace=wrap;" parent="1" vertex="1">
          <mxGeometry x="-770" y="755" width="85.83" height="58.42" as="geometry" />
        </mxCell>
        <mxCell id="L6_ODTOo7d9szGgP1L_s-48" style="edgeStyle=orthogonalEdgeStyle;rounded=0;orthogonalLoop=1;jettySize=auto;html=1;entryX=0.006;entryY=0.538;entryDx=0;entryDy=0;entryPerimeter=0;curved=1;" parent="1" source="L6_ODTOo7d9szGgP1L_s-11" target="L6_ODTOo7d9szGgP1L_s-15" edge="1">
          <mxGeometry relative="1" as="geometry" />
        </mxCell>
        <mxCell id="L6_ODTOo7d9szGgP1L_s-49" style="edgeStyle=orthogonalEdgeStyle;rounded=0;orthogonalLoop=1;jettySize=auto;html=1;entryX=-0.004;entryY=0.477;entryDx=0;entryDy=0;entryPerimeter=0;curved=1;" parent="1" source="L6_ODTOo7d9szGgP1L_s-12" target="L6_ODTOo7d9szGgP1L_s-20" edge="1">
          <mxGeometry relative="1" as="geometry" />
        </mxCell>
        <mxCell id="L6_ODTOo7d9szGgP1L_s-50" style="edgeStyle=orthogonalEdgeStyle;rounded=0;orthogonalLoop=1;jettySize=auto;html=1;entryX=0.003;entryY=0.477;entryDx=0;entryDy=0;entryPerimeter=0;curved=1;" parent="1" source="L6_ODTOo7d9szGgP1L_s-13" target="L6_ODTOo7d9szGgP1L_s-25" edge="1">
          <mxGeometry relative="1" as="geometry" />
        </mxCell>
        <mxCell id="L6_ODTOo7d9szGgP1L_s-51" style="edgeStyle=orthogonalEdgeStyle;rounded=0;orthogonalLoop=1;jettySize=auto;html=1;entryX=-0.001;entryY=0.492;entryDx=0;entryDy=0;entryPerimeter=0;curved=1;" parent="1" source="L6_ODTOo7d9szGgP1L_s-13" target="L6_ODTOo7d9szGgP1L_s-29" edge="1">
          <mxGeometry relative="1" as="geometry" />
        </mxCell>
        <mxCell id="L6_ODTOo7d9szGgP1L_s-52" style="edgeStyle=orthogonalEdgeStyle;rounded=0;orthogonalLoop=1;jettySize=auto;html=1;entryX=-0.001;entryY=0.523;entryDx=0;entryDy=0;entryPerimeter=0;curved=1;" parent="1" source="L6_ODTOo7d9szGgP1L_s-13" target="L6_ODTOo7d9szGgP1L_s-33" edge="1">
          <mxGeometry relative="1" as="geometry" />
        </mxCell>
        <mxCell id="L6_ODTOo7d9szGgP1L_s-53" style="edgeStyle=orthogonalEdgeStyle;rounded=0;orthogonalLoop=1;jettySize=auto;html=1;curved=1;" parent="1" source="L6_ODTOo7d9szGgP1L_s-55" target="L6_ODTOo7d9szGgP1L_s-45" edge="1">
          <mxGeometry relative="1" as="geometry" />
        </mxCell>
        <mxCell id="L6_ODTOo7d9szGgP1L_s-54" style="edgeStyle=orthogonalEdgeStyle;rounded=0;orthogonalLoop=1;jettySize=auto;html=1;curved=1;" parent="1" source="L6_ODTOo7d9szGgP1L_s-55" target="L6_ODTOo7d9szGgP1L_s-42" edge="1">
          <mxGeometry relative="1" as="geometry" />
        </mxCell>
        <mxCell id="L6_ODTOo7d9szGgP1L_s-55" value="Serverless" style="rounded=1;whiteSpace=wrap;html=1;" parent="1" vertex="1">
          <mxGeometry x="-1180" y="825" width="120" height="60" as="geometry" />
        </mxCell>
        <mxCell id="L6_ODTOo7d9szGgP1L_s-56" value="Containerization" style="rounded=1;whiteSpace=wrap;html=1;" parent="1" vertex="1">
          <mxGeometry x="-1180" y="905" width="120" height="60" as="geometry" />
        </mxCell>
        <mxCell id="L6_ODTOo7d9szGgP1L_s-57" style="edgeStyle=orthogonalEdgeStyle;rounded=0;orthogonalLoop=1;jettySize=auto;html=1;entryX=0.003;entryY=0.671;entryDx=0;entryDy=0;entryPerimeter=0;curved=1;" parent="1" source="L6_ODTOo7d9szGgP1L_s-13" target="L6_ODTOo7d9szGgP1L_s-20" edge="1">
          <mxGeometry relative="1" as="geometry" />
        </mxCell>
        <mxCell id="L6_ODTOo7d9szGgP1L_s-58" value="Virtual or&lt;br&gt;&amp;nbsp;Physical Host" style="rounded=1;whiteSpace=wrap;html=1;" parent="1" vertex="1">
          <mxGeometry x="-1180" y="734.47" width="120" height="60" as="geometry" />
        </mxCell>
        <mxCell id="L6_ODTOo7d9szGgP1L_s-59" style="edgeStyle=orthogonalEdgeStyle;rounded=0;orthogonalLoop=1;jettySize=auto;html=1;entryX=0;entryY=0.55;entryDx=0;entryDy=0;entryPerimeter=0;curved=1;" parent="1" source="L6_ODTOo7d9szGgP1L_s-55" target="L6_ODTOo7d9szGgP1L_s-39" edge="1">
          <mxGeometry relative="1" as="geometry" />
        </mxCell>
      </root>
    </mxGraphModel>
  </diagram>
</mxfile>
